
<svg width="163px" height="92px" viewBox="0 0 163 92" version="1.1" xmlns="http://www.w3.org/2000/svg" xmlns:xlink="http://www.w3.org/1999/xlink">
    <g id="Page-1" stroke="none" stroke-width="1" fill="none" fill-rule="evenodd">
        <g id="Group-8">
            <ellipse id="Oval" fill="#000000" opacity="0.327268328" cx="75.5" cy="89" rx="59.5" ry="3"></ellipse>
            <g id="Group-5" transform="translate(23.000000, 73.000000)">
                <path d="M8.92350785,11.0910157 C8.36667456,13.295147 6.62548861,15 4.20917835,15 C1.79431067,15 -0.379647277,13.434512 0.0560098557,10.0085694 C0.341639367,7.75978712 1.50435344,0 3.91922112,0 C6.33553137,0 9.5366015,8.65821757 8.92350785,11.0910157" id="Fill-26" fill="#442823"></path>
                <path d="M3.75755906,12.6136364 C3.62676856,12.9155175 3.49142883,14.069769 3.73481289,14.9713145 C3.81101257,14.9836083 3.88380032,14.9918041 3.96,15 L3.75755906,12.6136364" id="Fill-31" fill="#281E1C"></path>
                <path d="M2.27988049,12.2727273 C2.12506705,12.5771944 2.05548798,13.677116 2.4816598,14.5370298 C2.61212057,14.5822884 2.74432081,14.6234326 2.88,14.6590909 L2.27988049,12.2727273" id="Fill-32" fill="#281E1C"></path>
            </g>
            <g id="Group-3" transform="translate(109.000000, 73.000000)">
                <path d="M7.85786547,11.0282037 C7.42569835,13.2803943 5.98921832,15 3.71286634,15 C1.43651436,15 -0.0081197579,13.8335159 0,9.89457831 C0.00818843539,6.71002191 1.45961764,0 3.7346106,0 C6.01096258,0 8.6447358,6.94824754 7.85786547,11.0282037" id="Fill-27" fill="#442823"></path>
                <path d="M5.33333333,14.9930019 L5.11299347,12.6136364 C5.00778615,12.9243535 4.91349657,14.088843 5.13482895,15 C5.20232044,15 5.26881941,14.9986004 5.33333333,14.9930019" id="Fill-35" fill="#281E1C"></path>
                <path d="M4.08069307,12.2727273 C3.99348273,12.5806002 3.93324467,13.7090033 4.13913299,14.5964018 C4.20386644,14.6214775 4.26859989,14.6423738 4.33333333,14.6590909 L4.08069307,12.2727273" id="Fill-36" fill="#281E1C"></path>
            </g>
            <g id="Group" transform="translate(16.000000, 38.000000)">
                <g id="Group-2">
                    <path d="M108.574991,49.551364 C108.562512,49.5637416 108.55142,49.5816203 108.538941,49.5939979 C108.516756,49.622879 108.494571,49.6503847 108.473773,49.6751399 C108.473773,49.6792658 108.469614,49.6792658 108.469614,49.6792658 C107.695919,50.5869555 106.545083,51.1590751 105.259752,51.1590751 C102.937282,51.1590751 101.052962,49.29281 101.052962,46.9905787 C101.052962,45.9673648 100.139226,41.8456283 99.1478434,41.9322714 C98.7374248,41.963903 98.3242332,41.9872829 97.9013357,41.992784 C93.8581582,43.6183738 43.7697455,44.1616124 38.4578755,44.1616124 C37.161452,44.1616124 35.709735,44.1712394 34.7336044,43.944317 C34.7918395,44.2510061 33.9224731,44.3789078 33.3914248,44.2950153 C32.7549987,44.1973699 32.1518498,44.0722187 31.6845827,43.6940146 C31.6041629,44.2097475 30.4602598,44.1093515 29.9805138,44.0488388 C28.5579143,43.863175 27.0049792,43.0558813 26.8053161,42.8385858 C26.8053161,42.8385858 25.9096054,52.0873941 21.4712614,51.9993757 C18.6773648,51.9429889 17.8579142,50.0327146 16.3798528,47.0483408 C16.1122488,46.5106034 15.1194796,44.4820544 15.1194796,44.4820544 C5.65073515,43.5468589 -0.280922288,36.0762973 0.010253042,25.8139022 C0.300041823,15.5480688 6.64350437,7.387663 16.9982537,7.387663 C23.7687734,7.387663 36.2255313,-2.14720508 37.8741383,0.4475498 C39.4561909,2.93902059 40.9411851,7.73368533 43.743401,8.47634057 C47.1459928,9.38086714 95.6495798,8.16428784 97.6683954,8.16428784 C101.417624,8.16428784 103.354634,8.49146873 104.194882,8.6343611 C105.908657,8.92949779 108.086926,10.0294527 107.60718,10.9433312 C109.998977,11.3119083 112.586278,13.9836793 111.597669,15.2096105 C113.576274,16.001226 114.706312,17.8138549 114.697993,19.964942 C114.695219,20.3333816 114.485851,20.9558367 114.184969,21.1137197 C114.45812,22.2212387 114.793664,23.3060654 114.935092,24.7205486 C115.371855,29.0554547 113.617871,41.543065 109.264106,48.5281501 C109.051964,48.8967272 108.776041,49.29281 108.574991,49.551364 Z" id="Fill-28" fill="#E99E4D"></path>
                    <path d="M106.744223,25.1390728 C106.620722,25.1390728 106.511114,25.0707781 106.48487,24.9719945 L106.319688,24.3597806 C106.290356,24.2488016 106.381438,24.1353834 106.525008,24.112212 C106.665491,24.0829428 106.807517,24.1597744 106.838392,24.2731926 L107.003575,24.8854065 C107.032907,24.9988246 106.941825,25.1085841 106.798255,25.1341946 C106.779729,25.1354142 106.761204,25.1390728 106.744223,25.1390728" id="Fill-46" fill="#281E1C"></path>
                    <path d="M107.762106,23.4172185 C107.626627,23.4172185 107.504696,23.3325308 107.4776,23.2088262 L107.362443,22.6960117 C107.330266,22.5553696 107.431876,22.4168447 107.58937,22.3900773 C107.748558,22.3590755 107.899278,22.4520808 107.931454,22.5927229 L108.044918,23.1075034 C108.078788,23.2481455 107.975485,23.3839484 107.819684,23.4111694 C107.799362,23.414194 107.779041,23.4172185 107.762106,23.4172185" id="Fill-47" fill="#281E1C"></path>
                    <path d="M108.799639,25.8278146 C108.653177,25.8278146 108.523946,25.745781 108.506715,25.6337987 L108.401607,25.0478448 C108.379207,24.9254456 108.49293,24.8147654 108.6549,24.7965357 C108.822039,24.7809103 108.966778,24.8668502 108.987455,24.9892494 L109.09084,25.5752033 C109.11324,25.6976026 108.999517,25.8082828 108.837547,25.8252103 C108.822039,25.8278146 108.811701,25.8278146 108.799639,25.8278146" id="Fill-48" fill="#281E1C"></path>
                    <path d="M108.9061,29.2715232 C108.90237,29.2715232 108.900506,29.2715232 108.896776,29.2715232 C108.807267,29.2609038 108.740135,29.1380226 108.746662,28.9954197 L108.774633,28.1428363 C108.778363,27.9971993 108.866007,27.9122444 108.94153,27.8940397 C109.029175,27.9046591 109.097239,28.0275403 109.093509,28.1701432 L109.065538,29.0227266 C109.059943,29.1638125 108.990015,29.2715232 108.9061,29.2715232" id="Fill-49" fill="#281E1C"></path>
                    <path d="M107.541231,27.205298 C107.45378,27.205298 107.381538,27.1106303 107.377736,26.9830347 L107.356823,26.4191446 C107.35112,26.290177 107.420511,26.1790454 107.509863,26.1721854 C107.612523,26.1763014 107.67621,26.2654811 107.682864,26.3958207 L107.703776,26.9555948 C107.707579,27.0873064 107.639139,27.198438 107.548836,27.205298 C107.545984,27.205298 107.542182,27.205298 107.541231,27.205298" id="Fill-50" fill="#281E1C"></path>
                    <path d="M105.078728,48.5562914 C104.892253,48.911076 104.770788,50.321596 105.350743,51.2624215 C105.437992,51.279658 105.526953,51.2968945 105.619335,51.3112583 L105.078728,48.5562914" id="Fill-29" fill="#281E1C"></path>
                    <path d="M106.661631,51.3011615 L106.421942,48.5562914 C106.311684,48.9111196 106.210056,50.3506258 106.526446,51.3112583 C106.571508,51.3098159 106.617529,51.3069311 106.661631,51.3011615" id="Fill-30" fill="#281E1C"></path>
                </g>
                <g id="Group-4" transform="translate(20.151057, 49.245033)" fill="#281E1C">
                    <path d="M1.73716012,2.73549519 L1.21249999,0.344370861 C1.01757418,0.654619892 0.880943934,1.89951035 1.43839532,2.75496689 C1.57138209,2.75496689 1.66793413,2.74328387 1.73716012,2.73549519" id="Fill-33"></path>
                    <path d="M0.122345639,0 C-0.0444384361,0.355938874 -0.124623087,1.78966066 0.449499016,2.71225422 C0.529683667,2.72933929 0.611472011,2.74357684 0.694864048,2.75496689 L0.122345639,0" id="Fill-34"></path>
                </g>
            </g>
            <path d="M15.7284307,46.9501383 C15.0991605,47.0315256 14.6149992,46.9445953 14.29269,46.693268 C13.9382895,46.4140905 13.8978265,46.0222957 13.8964312,45.998231 C13.8880596,45.8707422 13.7820185,45.7635327 13.643886,45.7820544 C13.5099393,45.7893549 13.4108746,45.8984572 13.4192463,46.025946 C13.4206416,46.0519034 13.4666857,46.6229667 13.9745668,47.0351759 C8.91947616,51.5452777 3.68020892,48.6617057 3.4513834,48.5342169 C1.41288289,47.4492779 0.469675257,45.1684047 0.46269887,45.1462328 C0.415259433,45.0279372 0.277126954,44.9706146 0.152947251,45.0149585 C0.0287675484,45.0629527 -0.0312293867,45.1961197 0.0162100503,45.3161728 C0.0566730996,45.4141891 1.02778628,47.7726641 3.21697677,48.9353402 C3.24906816,48.9538619 5.13269286,50 7.73488551,50 C9.71199382,50 12.1090807,49.3955436 14.4238461,47.271767 C14.6791819,47.3734335 14.9596327,47.4437349 15.2958946,47.4437349 C15.4521657,47.4437349 15.6182037,47.4326489 15.7940087,47.4104769 C15.9237695,47.3919552 16.0158578,47.2755524 15.9977192,47.1498212 C15.9809759,47.0221972 15.8623773,46.9335093 15.7284307,46.9501383" id="Fill-44" fill="#281E1C"></path>
            <path d="M21.729757,77 C21.6647586,77 21.602931,76.9830178 21.5490299,76.9464408 C21.534762,76.9359903 21.1511132,76.6616629 21.0116046,76.2893614 C20.9688008,76.1704862 21.0480671,76.0463857 21.189161,76.0085024 C21.3381816,75.9758444 21.4856169,76.0398541 21.5315913,76.1561167 C21.6235402,76.401705 21.9025574,76.6054911 21.9041428,76.6081037 C22.0198715,76.686483 22.0325541,76.828872 21.9326786,76.9229271 C21.8803629,76.9738736 21.8042673,77 21.729757,77" id="Fill-55" fill="#281E1C"></path>
            <path d="M23.6698028,76 C23.5868344,76 23.5019365,75.9704787 23.4324746,75.917651 C23.3668718,75.8648234 23.0427163,75.5835938 23.0021968,75.2992567 C22.9809724,75.1532038 23.1160371,75.0195809 23.2993394,75.0040433 C23.4980775,74.9760757 23.6408603,75.0972686 23.6601553,75.2417678 C23.6698028,75.3070255 23.7990791,75.4592934 23.9052014,75.5463037 C24.0325482,75.651959 24.0325482,75.8197645 23.8994129,75.923866 C23.8395985,75.9751399 23.7527711,76 23.6698028,76" id="Fill-56" fill="#281E1C"></path>
            <path d="M22.7143478,78 C22.6439958,78 22.5753187,77.9805493 22.5200421,77.9388691 C22.4781659,77.9069144 22.1213804,77.6318256 22.0108271,77.3025526 C21.9672758,77.1775122 22.0594035,77.0441358 22.210158,77.008013 C22.3592374,76.9746689 22.5217172,77.0483038 22.5652684,77.1747335 C22.61887,77.3428434 22.8316013,77.5290146 22.9069785,77.5873668 C23.024232,77.674895 23.0309322,77.8263328 22.9254041,77.9235864 C22.8684524,77.9749919 22.7930752,78 22.7143478,78" id="Fill-57" fill="#281E1C"></path>
            <path d="M24.7452958,79 C24.6959978,79 24.6452059,78.9893833 24.6018835,78.9575331 C24.4913365,78.883216 24.1238426,78.6208312 24.0192711,78.3584464 C23.9654915,78.2280123 24.0282344,78.0748281 24.1582018,78.0187111 C24.2911569,77.9656275 24.4390508,78.0293278 24.4913365,78.1612786 C24.522708,78.2310456 24.7079488,78.4039466 24.8857203,78.5252806 C25.0037366,78.6056644 25.0351081,78.7679487 24.9574264,78.8862494 C24.9081284,78.9605664 24.8259652,79 24.7452958,79" id="Fill-58" fill="#281E1C"></path>
            <path d="M23.7023088,77 C23.6256179,77 23.5524129,76.978036 23.4948947,76.9311796 C23.4565492,76.8975015 23.1184119,76.6207554 23.0120904,76.324974 C22.966773,76.1902616 23.0521788,76.0511565 23.2125326,76.0101571 C23.3641715,75.9720862 23.5332402,76.0438352 23.5837865,76.1785475 C23.6308468,76.3074028 23.8068874,76.4845788 23.90798,76.5665777 C24.0265024,76.6632191 24.0317313,76.8213597 23.9166949,76.9209297 C23.8574337,76.9736432 23.7789998,77 23.7023088,77" id="Fill-59" fill="#281E1C"></path>
            <g id="Group-6" transform="translate(36.500000, 36.000000) scale(-1, 1) translate(-36.500000, -36.000000) translate(7.000000, 0.000000)">
                <path d="M35.4,14.8341055 C36.1071642,14.879339 45.8499757,-1.08359621 51.1315244,0.0584877652 C55.2282972,0.944290096 53.3768015,22.9565217 53.3768015,22.9565217 L35.4,14.8341055" id="Fill-145" fill="#442823"></path>
                <path d="M51.0176471,0.00232919198 C48.4923645,1.09732326 42.3369883,7.48431089 40.8500299,16.1138863 L40.7302798,17.0434783 L35.7470588,14.7949076 C36.4334792,14.8384082 45.6557072,-0.214924612 51.0176471,0.00232919198" id="Fill-146" fill="#F4AC5F"></path>
                <path d="M21.1705882,18.4424228 C20.6050082,18.8658572 4.22696382,10.752299 0.434101453,14.6071632 C-2.50725275,17.597427 10.461983,35.1304348 10.461983,35.1304348 L21.1705882,18.4424228" id="Fill-147" fill="#442823"></path>
                <path d="M0.694117647,14.3069051 C3.37132704,13.8515322 11.8476216,15.847721 17.5993194,22.244778 L18.1872389,22.9565217 L21.1705882,18.3820664 C20.6199969,18.7885832 5.05315749,11.2209552 0.694117647,14.3069051" id="Fill-148" fill="#F4AC5F"></path>
                <path d="M58.2199632,31.2415165 C54.9266368,18.5882149 41.7237217,11.2365375 28.728073,14.8204755 C15.7332737,18.4054132 7.86916607,31.5712593 11.1607936,44.224561 C11.3412415,44.9181579 11.5539686,45.596386 11.7912085,46.2608696 L36.6340465,45.8850203 L58.6529412,33.2693285 C58.5385078,32.5928497 58.3957998,31.916371 58.2199632,31.2415165 Z" id="Fill-149" fill="#F4AC5F"></path>
                <path d="M58.6635683,33.6401178 C58.60367,33.2643404 58.1875471,32.810473 57.7547452,32.4959988 C57.0706625,31.994382 54.6322408,30.8553612 51.8708307,32.4823206 C49.3725107,33.9563329 46.0851642,39.6294273 42.09036,39.387945 C37.0545182,39.0836672 34.9385978,35.039273 33.886603,31.1290495 C33.2241909,28.8476506 32.2367208,23.5757003 32.1921623,23.4039768 C31.9837356,22.6050457 31.1972658,22.1238219 30.4157875,22.2955454 C29.65391,22.5454834 29.2099076,23.3649318 29.4208909,24.1622463 C29.4653277,24.3339699 31.1922742,29.4018662 31.7331853,31.7190772 C32.7352648,35.6427302 32.8841584,40.2244289 28.6714314,43.0601678 C25.3300303,45.3093608 19.707745,42.075835 16.8228859,42.075835 C13.6345177,42.075835 12.0791093,44.3079925 11.7316503,45.0917532 C11.5136058,45.5846657 11.3721386,46.1916046 11.5036227,46.5452481 C12.0940839,48.1484572 12.929982,50.1612661 13.8580407,50.950125 C14.6719031,51.8188149 15.5003748,51.2238133 15.517906,50.5063297 C15.5524815,51.0401524 15.8354158,52.1724584 15.9939272,52.708022 C17.2939156,57.1106607 20.7551134,57.277286 21.0227079,55.716728 C22.7766817,60.7391133 27.2898742,60.1745768 26.5454063,58.3504027 C26.9274407,59.1201122 27.8279852,60.1173771 28.5549219,60.6272008 C28.6963891,60.7291655 28.8628139,60.8124782 29.043848,60.8821127 C29.0313084,60.8771388 29.0138989,60.8746518 29.0013592,60.8696779 C29.9863944,62.7721908 31.6287285,64.2643578 33.6211999,65.0328238 C33.7277264,65.067641 33.8316962,65.1049452 33.9361531,65.1472232 C33.965737,65.157171 34.0230787,65.1795535 34.0230787,65.1795535 C36.1960973,66.0785841 37.7320266,68.2546609 37.7320266,70.7988056 C37.7320266,71.2091515 37.689903,71.6107931 37.6155171,72 C43.7407292,69.5540897 48.0941928,63.507083 48.1915885,56.4068552 C48.1324206,56.4155595 48.0775138,56.4118291 48.022607,56.4155595 C48.9464047,56.3919336 50.3445192,55.4978769 50.7914435,54.5406518 C51.1709213,53.7280425 51.4639604,52.4071017 51.41648,51.5451266 C51.6677608,53.5018549 55.8473732,51.6878772 54.9101836,46.4432834 C55.9072715,47.6570369 58.8217145,45.7445762 57.7930947,41.2665832 C57.6666021,40.7241805 57.3587101,39.5988379 57.1272737,39.1177384 C57.4951858,39.7331329 58.502135,39.8249012 58.7817823,38.655291 C59.1996096,37.4992346 58.9366413,35.328256 58.6635683,33.6401178" id="Fill-150" fill="#FFFFFF"></path>
                <path d="M28.8002372,36.9757197 C28.8596503,38.0333904 28.4432985,38.9185974 27.8716909,38.9554402 C27.3010027,38.9905695 26.7880039,38.1655839 26.7291653,37.1096269 C26.6697522,36.0519562 27.0869085,35.1684628 27.6580563,35.1316199 C28.2306982,35.0947771 28.7417433,35.9214763 28.8002372,36.9757197" id="Fill-151" fill="#281E1C"></path>
                <path d="M27.6879324,36.3812126 C27.5919938,36.6648638 27.469761,36.9180641 27.2798973,36.8616239 C27.0915734,36.803622 27.0163623,36.5291173 27.1123009,36.2455776 C27.2077657,35.9619264 27.4373077,35.778886 27.6276451,35.8367763 C27.817035,35.8932166 27.7830419,36.099123 27.6879324,36.3812126" id="Fill-152" fill="#FFFFFF"></path>
                <path d="M39.906747,33.0451542 C40.3424257,32.8687291 41.0142182,32.8347694 41.6470588,33.0289435 C40.9847514,32.0049445 40.0109558,31.4370948 39.2894618,31.7282967 C38.5252219,32.0355911 38.3112398,33.2003988 38.7456538,34.4347826 C39.0145226,33.7633971 39.4766329,33.2166096 39.906747,33.0451542" id="Fill-153" fill="#281E1C"></path>
                <path d="M38.8187114,27.5540843 C39.8663916,27.7941153 40.8137211,28.0758686 40.9395966,27.4254827 C41.063141,26.7767505 40.3149978,26.0550041 39.2701148,25.816754 C38.2227843,25.5767231 37.2726576,25.9124102 37.1491131,26.5611424 C37.0232377,27.2115283 37.7713809,27.3158342 38.8187114,27.5540843" id="Fill-154" fill="#281E1C"></path>
                <path d="M26.2003496,31.1828884 C25.3331926,31.9348081 24.5799687,32.6750387 24.1390479,32.1956607 C23.6976207,31.7161596 24.0433442,30.7169221 24.9101213,29.9666019 C25.7746198,29.2129595 26.8347033,28.9909888 27.2760039,29.4703669 C27.7169248,29.949868 27.0644683,30.4309686 26.2003496,31.1828884" id="Fill-155" fill="#281E1C"></path>
                <path d="M36.7842129,46.6086957 C37.1429844,48.0285021 38.7926436,48.6139086 40.4061642,48.8608809 C40.6528344,49.6071036 40.8422059,50.244431 41.1062322,51.2875258 C41.4865204,52.7936146 41.5271764,55.1784448 39.1197937,55.8656721 C36.7119355,56.5516361 35.6242089,54.4620357 35.2434452,52.9560732 C34.9797755,51.9128521 34.8465141,51.2616284 34.7058824,50.4844553 C35.9898753,49.4135682 37.169494,48.1406819 36.7842129,46.6086957" id="Fill-156" fill="#FD817F"></path>
                <path d="M39.8428463,50.4808725 C39.9079905,50.8234122 39.9644063,51.1678409 40.0036844,51.5087435 C40.0233767,51.6791319 40.0404079,51.8496461 40.0491364,52.0166343 C40.0859663,52.6261535 40.1204544,53.1788766 39.8323082,53.7693799 C39.7802567,53.8932987 39.6933977,54.0155803 39.5762019,54.1585151 L39.5762019,54.1601522 C39.5608739,54.1774051 39.5608739,54.2032216 39.5762019,54.2204745 C39.5783308,54.2238747 39.5849304,54.2274008 39.59153,54.230801 C39.7584355,54.2893602 39.9469493,54.2617807 40.1186449,54.1533518 C40.2878922,54.0447969 40.424248,53.8589187 40.5068492,53.6591879 C40.6782254,53.1892032 40.5807219,52.6553701 40.5545365,52.4694919 C40.5283511,52.2852509 40.4916276,52.1061731 40.4504335,51.9304956 C40.4049815,51.754944 40.3547395,51.5827926 40.3005591,51.4158044 C40.1855987,51.0817023 40.055736,50.7580526 39.899262,50.453293 C39.8909593,50.4344029 39.871267,50.4292396 39.855939,50.4412033 C39.8450816,50.4498928 39.838482,50.4653826 39.8428463,50.4808725" id="Fill-157" fill="#FFFFFF"></path>
                <path d="M35.6618471,42.0765893 C35.9724493,41.5851557 36.9989707,40.2275687 38.5251618,40.8607882 C40.4282797,41.6509848 39.6155917,45.9416118 36.9250351,46.895702 C34.1257496,47.4444428 31.3269474,44.1433525 32.5872359,42.486879 C33.5988978,41.1579456 35.1523919,41.8096911 35.6618471,42.0765893 Z" id="Fill-158" fill="#281E1C"></path>
                <path d="M37.8759309,42.6484093 C38.4274934,42.8942899 38.6578148,43.3435718 38.8186324,43.0138568 C38.9815523,42.6842669 38.7570119,42.1085464 38.2055808,41.8609167 C37.6537556,41.613162 36.9764558,41.7687114 36.8130104,42.1000505 C36.6499591,42.4313897 37.3244998,42.4006546 37.8759309,42.6484093" id="Fill-159" fill="#FFFFFF"></path>
                <path d="M40.9529412,14.6605813 C41.2496964,11.7967834 43.8174463,9.97541577 44.3171686,10.5360444 C44.9591361,11.2578874 42.4867374,13.4410975 42.4522282,13.2060902 C44.515326,11.6926632 44.8243458,13.3612883 42.5804053,14.0814125 C45.0529242,13.4100333 44.2119575,15.5754398 41.8940687,14.7772255 L40.9529412,14.6605813" id="Fill-160" fill="#F4AC5F"></path>
                <path d="M17.7,22.4906084 C17.0541747,20.3743068 12.8649494,18.7652296 12.5203756,19.800599 C12.1732977,20.8376368 15.3830171,21.8289834 15.3063895,21.5869224 C12.6989229,21.1569624 13.1683295,22.8643528 15.5871069,22.4659659 C12.9796403,23.0187533 14.7504639,24.6418202 16.5440753,22.7888852 L17.7,22.4906084" id="Fill-161" fill="#F4AC5F"></path>
                <path d="M48.0055854,38.6105115 C44.9190064,39.0351468 44.5062824,42.1058654 44.2344472,44.134762 C44.1606079,44.6752523 44.0985295,45.1424136 44.0006834,45.4766347 C43.4570129,47.3538846 42.5791863,48.400695 41.2406219,48.7689617 C39.522919,49.2413608 37.7541711,48.3819886 36.9804955,46.8082812 C36.9609748,46.5491351 36.9212058,46.2899891 36.8548838,46.0358314 C36.8250571,45.9199764 36.7064778,45.8517604 36.5974769,45.8824389 C36.5681352,45.8909191 36.5532219,45.9164846 36.5307912,45.9353157 C36.5038744,45.9302026 36.4764727,45.9148633 36.4491921,45.9233436 C36.3355839,45.9540221 36.2714444,46.0717477 36.3012711,46.1876027 C36.3679568,46.4451275 36.4591344,46.6871884 36.5681352,46.9190231 C36.6099654,47.6521894 36.446646,48.3819886 36.0812082,49.0349668 C35.5847027,49.9165373 34.7865352,50.5473172 33.8305044,50.8099551 C32.4910914,51.1799678 31.2262451,50.722908 29.8400308,49.3776681 C29.5954761,49.1389744 29.3136986,48.7689617 28.9900909,48.3410839 C27.7670748,46.7196128 25.9138179,44.2694481 23.0382083,45.4919739 C22.9292075,45.5379917 22.8774351,45.6641975 22.9216902,45.7750641 C22.9665515,45.8841848 23.0899807,45.9404288 23.1960716,45.8909191 C25.7804465,44.798091 27.4434672,46.9992112 28.658966,48.6053431 C28.9925159,49.0486848 29.2818107,49.4322908 29.550736,49.6931828 C30.7124013,50.8201813 31.8093208,51.3691519 32.9361883,51.3691519 C33.2668282,51.3691519 33.6004993,51.3213882 33.9390203,51.2276067 C35.0040519,50.934415 35.893397,50.2319272 36.4445848,49.2515869 C36.6547054,48.8747153 36.7852882,48.4740241 36.8718584,48.0614855 L37.8109146,51.6675814 C37.8354065,51.762984 37.9219766,51.826087 38.0131542,51.826087 C38.0330387,51.826087 38.0504982,51.824341 38.0678365,51.8192279 C38.1814447,51.7885494 38.2481305,51.6709485 38.2158788,51.5549688 L37.2796113,47.9574779 C38.0504982,48.8099911 39.1300794,49.3300291 40.2842274,49.3300291 C40.6356006,49.3300291 40.9936423,49.2838867 41.3484103,49.1849922 C42.8412005,48.7740748 43.8116597,47.6352289 44.4026164,45.6010946 C44.5112535,45.2328279 44.5758781,44.7536945 44.6504448,44.1944977 C44.9215526,42.1808157 45.2919615,39.4204988 48.0595402,39.0402599 C48.1764221,39.0231747 48.2542625,38.9158 48.2393492,38.7964531 C48.2252845,38.6787275 48.1216186,38.5951722 48.0055854,38.6105115" id="Fill-162" fill="#281E1C"></path>
                <path d="M45.9324339,20.173913 C45.8958095,20.173913 45.8557963,20.1644502 45.821909,20.1471401 L45.232139,19.8520602 C45.1234388,19.7983988 45.0860324,19.6753816 45.1465083,19.5791373 C45.2080268,19.482893 45.3461829,19.449773 45.4548831,19.5049346 L46.0446531,19.8000144 C46.1533533,19.8536758 46.1907597,19.9750775 46.1292411,20.0713217 C46.0874033,20.1360616 46.0098534,20.173913 45.9324339,20.173913" id="Fill-163" fill="#281E1C"></path>
                <path d="M46.6145401,22.2608696 C46.57883,22.2608696 46.5422958,22.2538984 46.5085085,22.2383084 L45.9431898,21.9818965 C45.8258958,21.9281552 45.7779618,21.7964637 45.8371582,21.6873334 C45.8953932,21.5798508 46.0380963,21.5348551 46.1526434,21.5868219 L46.7178248,21.8450083 C46.8389645,21.8987496 46.8867611,22.0304411 46.8277021,22.1377969 C46.7853993,22.2158739 46.7018926,22.2608696 46.6145401,22.2608696" id="Fill-164" fill="#281E1C"></path>
                <path d="M45.9597285,23.6521739 C45.9188901,23.6521739 45.8795473,23.6366072 45.8465315,23.6073303 L45.2048516,23.0606376 C45.1136268,22.9845176 45.0900441,22.8301355 45.1528546,22.7168839 C45.2142847,22.6037751 45.3400208,22.5743553 45.4297502,22.6524747 L46.07143,23.2011668 C46.1634601,23.2772867 46.1862376,23.431526 46.123312,23.5429211 C46.0855797,23.6131856 46.0226541,23.6521739 45.9597285,23.6521739" id="Fill-165" fill="#281E1C"></path>
                <path d="M49.0563692,21.9130435 C49.0081482,21.9130435 48.9580977,21.9007553 48.9169335,21.876179 L48.329134,21.5279149 C48.2308625,21.4691716 48.2112605,21.359877 48.2890152,21.2833508 C48.3631108,21.2082233 48.5042454,21.1959351 48.606176,21.2533797 L49.1939754,21.6043412 C49.293031,21.6616859 49.311849,21.7709805 49.235009,21.846108 C49.1886176,21.8911646 49.1224934,21.9130435 49.0563692,21.9130435" id="Fill-166" fill="#281E1C"></path>
                <path d="M42.1721223,67.4782609 C42.1328,67.4782609 42.0927591,67.4614598 42.0598023,67.4236574 C41.9840326,67.3396521 41.9714043,67.1856424 42.0345457,67.0820358 L42.3728402,66.5234004 C42.4359817,66.4197939 42.5489177,66.4043929 42.6240714,66.4911984 C42.6998412,66.5766038 42.7096974,66.7306136 42.6472746,66.8314199 L42.3082614,67.3900553 C42.274586,67.4502591 42.2226354,67.4782609 42.1721223,67.4782609" id="Fill-173" fill="#281E1C"></path>
                <path d="M40.8200988,67.1304348 C40.7752311,67.1304348 40.727017,67.1159095 40.6888423,67.0902109 C40.5956365,67.0242884 40.5777885,66.9024995 40.6515352,66.8186997 L40.9159075,66.5103167 C40.9870512,66.4242822 41.1235135,66.4108743 41.2167193,66.4745621 C41.3106687,66.5404846 41.327649,66.6622735 41.25477,66.7471906 L40.9896541,67.0555737 C40.9463977,67.1058535 40.883682,67.1304348 40.8200988,67.1304348" id="Fill-174" fill="#281E1C"></path>
                <path d="M41.1263302,69.2173913 C41.0777135,69.2173913 41.028395,69.1948025 40.995516,69.1528518 C40.9324646,69.0743288 40.9406843,68.957082 41.0119555,68.8893155 L41.35939,68.566618 C41.432666,68.4999272 41.5437328,68.5085325 41.6046792,68.5859799 C41.6677306,68.6645029 41.6595109,68.7817497 41.5861346,68.8495162 L41.2388004,69.171138 C41.2065229,69.2023321 41.1675292,69.2173913 41.1263302,69.2173913" id="Fill-175" fill="#281E1C"></path>
                <path d="M39.0999923,70.2608696 C39.0322699,70.2608696 38.9682439,70.2254301 38.9221716,70.1678409 C38.841512,70.0541391 38.8577495,69.8946614 38.9547786,69.8060626 L39.5385376,69.27447 C39.6378109,69.1858713 39.7803843,69.2021144 39.8611759,69.3113862 C39.9393273,69.420658 39.92573,69.5816124 39.8287009,69.6702112 L39.245338,70.2018037 C39.2020379,70.2416732 39.1509491,70.2608696 39.0999923,70.2608696" id="Fill-176" fill="#281E1C"></path>
                <path d="M39.7408309,68.5217391 C39.6850599,68.5217391 39.6313169,68.4909277 39.5983614,68.434045 C39.5404609,68.3427957 39.5592203,68.2148097 39.6396319,68.1484466 L39.9827756,67.8652182 C40.0610578,67.7976701 40.1705717,67.8201861 40.2264441,67.9126205 C40.2825193,68.0050548 40.2638614,68.1330408 40.1851736,68.1970339 L39.8423341,68.4826323 C39.8112037,68.5098886 39.7762201,68.5217391 39.7408309,68.5217391" id="Fill-177" fill="#281E1C"></path>
            </g>
            <path d="M117,47.9351134 C121.714255,41.009705 128.424789,35.2368517 137.267538,34.182102 C145.126153,33.2447383 151.282334,35.6975971 156.116688,28.6877623 C156.3005,28.4212346 161.410183,20.7829974 161.972729,18 C164.418705,18.5424279 161.785608,22.7065478 161.351013,26.5072846 C159.449426,43.1375321 146.81129,42.0961609 131.632438,48.4554689 C128.298237,49.8523603 133.000892,56.6535405 127.896828,58" id="Path" fill="#E99E4D"></path>
        </g>
    </g>
</svg>
