<svg width="31px" height="33px" viewBox="0 0 31 33" version="1.1" xmlns="http://www.w3.org/2000/svg"
     xmlns:xlink="http://www.w3.org/1999/xlink">
    <g id="Page-1" stroke="none" stroke-width="1" fill="none" fill-rule="evenodd">
        <g id="Wall-of-Glory" transform="translate(-54.000000, -377.000000)" fill="#FFFFFF">
            <g id="Group" transform="translate(54.000000, 377.000000)">
                <path d="M13.9949979,32.3972449 C12.0749166,31.4921454 10.8707978,29.7149848 10.4827762,27.7385692 C10.3701247,27.1187784 9.92702905,26.8805943 9.38129539,27.2096981 C7.69152373,28.2305602 5.53862946,28.3793612 3.62105155,27.4670906 C0.489341405,25.9754948 -0.87499275,22.1694157 0.586972657,18.9600774 C3.5234203,12.5173261 15.8174479,11.5999333 16.9014051,12.1252188 C18.0003825,12.652041 25.237612,22.8555395 22.3061711,29.3036691 C20.8417023,32.5109586 17.1317147,33.8924262 13.9949979,32.3972449"
                      id="Fill-14"></path>
                <path d="M17.580603,3.23737066 C16.5148832,5.03454369 16.9586976,7.06636174 18.5643444,7.76522209 C20.1671644,8.45731615 22.3381799,7.56851658 23.4123802,5.76626884 C24.4837537,3.95097184 24.0512467,1.92736999 22.4314657,1.24010899 C20.822992,0.538107153 18.6519765,1.42666507 17.580603,3.23737066"
                      id="Fill-15"></path>
                <path d="M7.00854399,4.16810554 C7.12519552,6.37962606 8.56908233,8.08524838 10.2125729,7.99670298 C11.8638402,7.90287128 13.1159,6.03998176 12.9914717,3.83216165 C12.8851892,1.61879092 11.4361179,-0.0852455027 9.78744282,0.00329989872 C8.13358325,0.0936955026 6.88411568,1.96187132 7.00854399,4.16810554"
                      id="Fill-16"></path>
                <path d="M29.0607413,16.1638068 C27.3318921,17.4125772 25.2251658,17.2472099 24.3681505,15.7712655 C23.5061957,14.3104294 24.2100843,12.0928043 25.933994,10.8401882 C27.6776619,9.58207811 29.7695695,9.7567851 30.6339941,11.2308066 C31.4934791,12.7048282 30.7871207,14.9037738 29.0607413,16.1638068"
                      id="Fill-17"></path>
            </g>
        </g>
    </g>
</svg>
