
<svg width="186px" height="41px" viewBox="0 0 186 41" version="1.1" xmlns="http://www.w3.org/2000/svg">
    <g id="Page-1" stroke="none" stroke-width="1" fill="none" fill-rule="evenodd">
        <g id="Intro" transform="translate(-121.000000, -267.000000)" fill-rule="nonzero">
            <g id="foodie" transform="translate(121.552000, 267.840000)">
                <g id="shadow" opacity="0.35" transform="translate(0.000000, 6.000000)" fill="#260742">
                    <path d="M2.16,32.688 C1.488,32.688 1.056,32.064 0.864,30.816 C0.768,30.272 0.72,29.776 0.72,29.328 L0.72,28.272 C0.624,27.216 0.576,26.192 0.576,25.2 C0.448,22.256 0.336,20.176 0.24,18.96 C0.24,18.416 0.208,17.832 0.144,17.208 C0.08,16.584 0.032,16.144 0,15.888 L0,0.72 C0,0.432 0.112,0.256 0.336,0.192 L0.624,0.192 L0.768,0.24 C1.888,0.24 3.36,0.192 5.184,0.096 C7.616,0.032 9.648,0 11.28,0 L11.76,0 C11.952,0.032 12.272,0.048 12.72,0.048 L13.584,0.048 L14.064,0.048 C15.024,0.048 15.776,0.064 16.32,0.096 L21.264,0.096 C21.872,0.16 22.864,0.192 24.24,0.192 C24.496,0.192 24.688,0.208 24.816,0.24 C25.072,0.304 25.36,0.336 25.68,0.336 C25.808,0.336 25.936,0.288 26.064,0.192 C26.8,0.192 27.2,0.864 27.264,2.208 C27.328,2.656 27.36,2.992 27.36,3.216 C27.36,3.408 27.328,3.792 27.264,4.368 C27.232,4.88 27.216,5.696 27.216,6.816 C27.216,7.168 26.912,7.376 26.304,7.44 C26.144,7.472 25.872,7.488 25.488,7.488 L24.816,7.488 L22.656,7.488 L21.216,7.536 C20.896,7.632 20.4,7.68 19.728,7.68 C19.056,7.68 18.672,7.664 18.576,7.632 C18.48,7.664 18.408,7.696 18.36,7.728 C18.312,7.76 18.272,7.776 18.24,7.776 C18.24,7.84 18.224,7.904 18.192,7.968 C18.16,8.032 18.144,8.128 18.144,8.256 C18.112,8.48 18.032,9.312 17.904,10.752 C17.872,11.168 17.856,11.904 17.856,12.96 L17.808,13.056 C17.808,13.184 17.872,13.328 18,13.488 L23.76,13.488 C24.144,13.488 24.424,13.536 24.6,13.632 C24.776,13.728 24.912,13.904 25.008,14.16 C25.136,14.544 25.2,15.536 25.2,17.136 L25.2,19.44 L25.2,20.736 C25.136,21.024 25.048,21.216 24.936,21.312 C24.824,21.408 24.672,21.456 24.48,21.456 C24.224,21.456 23.984,21.488 23.76,21.552 L21.6,21.696 L20.64,21.696 C20.16,21.696 19.84,21.728 19.68,21.792 C19.456,21.856 19.152,21.904 18.768,21.936 L18.096,21.936 C17.584,21.936 17.232,22 17.04,22.128 C16.88,22.16 16.72,22.32 16.56,22.608 C16.56,25.52 16.528,27.504 16.464,28.56 C16.432,30.096 16.272,31.216 15.984,31.92 C15.408,31.92 14.576,31.952 13.488,32.016 C12.976,32.016 12.64,32.048 12.48,32.112 L12,32.112 L11.904,32.112 C11.776,32.112 11.68,32.096 11.616,32.064 C11.552,32.032 11.488,32.016 11.424,32.016 L11.28,31.968 C11.28,31.936 11.216,31.92 11.088,31.92 C11.056,31.92 11,31.936 10.92,31.968 C10.84,32 10.768,32.048 10.704,32.112 L6.72,32.112 C6.688,32.144 6.616,32.168 6.504,32.184 C6.392,32.2 6.24,32.24 6.048,32.304 L3.12,32.64 L2.16,32.688 Z" id="Path" />
                    <path d="M45.984,33.36 C45.728,33.36 45.376,33.328 44.928,33.264 C44.704,33.2 44.352,33.168 43.872,33.168 C42.656,33.168 41.152,32.896 39.36,32.352 L39.024,32.352 C38.8,32.352 38.56,32.288 38.304,32.16 C38.24,32.096 38.16,32.04 38.064,31.992 C37.968,31.944 37.856,31.872 37.728,31.776 L36.72,31.2 C35.76,30.656 34.912,29.896 34.176,28.92 C33.44,27.944 32.848,26.864 32.4,25.68 C31.536,23.504 31.104,21.28 31.104,19.008 C31.104,16.48 31.616,14.048 32.64,11.712 C33.728,9.248 35.184,7.296 37.008,5.856 C39.024,4.256 41.264,3.456 43.728,3.456 C44.496,3.456 45.088,3.488 45.504,3.552 C45.504,3.488 45.552,3.456 45.648,3.456 L45.792,3.456 C48.032,3.456 50.032,3.536 51.792,3.696 C53.296,3.92 54.688,4.384 55.968,5.088 C58.528,6.784 60.368,8.64 61.488,10.656 C62.672,12.896 63.264,15.536 63.264,18.576 C63.264,21.616 62.544,24.464 61.104,27.12 L60.624,27.888 C60.496,28.08 60.416,28.176 60.384,28.176 L60.24,28.416 L59.904,28.608 C58.528,30.656 56.448,32.048 53.664,32.784 C51.808,33.168 49.248,33.36 45.984,33.36 Z M46.8,29.76 C47.088,29.76 47.312,29.584 47.472,29.232 C47.856,28.656 48.176,27.536 48.432,25.872 C48.464,25.584 48.544,24.944 48.672,23.952 C48.8,22.96 48.88,22.032 48.912,21.168 C49.04,18.992 49.104,17.648 49.104,17.136 L49.104,16.032 L49.104,15.648 C49.104,14.496 49.056,13.504 48.96,12.672 C48.864,11.36 48.672,10.32 48.384,9.552 C48.096,9.168 47.872,8.976 47.712,8.976 C47.392,8.976 47.088,9.216 46.8,9.696 C46.512,10.176 46.288,11.056 46.128,12.336 L45.12,20.016 L45.12,20.976 L45.12,21.6 C45.216,22.944 45.264,23.824 45.264,24.24 L45.36,25.392 L45.504,26.928 C45.504,27.184 45.536,27.408 45.6,27.6 L46.128,29.376 C46.16,29.504 46.248,29.6 46.392,29.664 C46.536,29.728 46.672,29.76 46.8,29.76 Z" id="Shape" />
                    <path d="M82.224,33.36 C81.968,33.36 81.616,33.328 81.168,33.264 C80.944,33.2 80.592,33.168 80.112,33.168 C78.896,33.168 77.392,32.896 75.6,32.352 L75.264,32.352 C75.04,32.352 74.8,32.288 74.544,32.16 C74.48,32.096 74.4,32.04 74.304,31.992 C74.208,31.944 74.096,31.872 73.968,31.776 L72.96,31.2 C72,30.656 71.152,29.896 70.416,28.92 C69.68,27.944 69.088,26.864 68.64,25.68 C67.776,23.504 67.344,21.28 67.344,19.008 C67.344,16.48 67.856,14.048 68.88,11.712 C69.968,9.248 71.424,7.296 73.248,5.856 C75.264,4.256 77.504,3.456 79.968,3.456 C80.736,3.456 81.328,3.488 81.744,3.552 C81.744,3.488 81.792,3.456 81.888,3.456 L82.032,3.456 C84.272,3.456 86.272,3.536 88.032,3.696 C89.536,3.92 90.928,4.384 92.208,5.088 C94.768,6.784 96.608,8.64 97.728,10.656 C98.912,12.896 99.504,15.536 99.504,18.576 C99.504,21.616 98.784,24.464 97.344,27.12 L96.864,27.888 C96.736,28.08 96.656,28.176 96.624,28.176 L96.48,28.416 L96.144,28.608 C94.768,30.656 92.688,32.048 89.904,32.784 C88.048,33.168 85.488,33.36 82.224,33.36 Z M83.04,29.76 C83.328,29.76 83.552,29.584 83.712,29.232 C84.096,28.656 84.416,27.536 84.672,25.872 C84.704,25.584 84.784,24.944 84.912,23.952 C85.04,22.96 85.12,22.032 85.152,21.168 C85.28,18.992 85.344,17.648 85.344,17.136 L85.344,16.032 L85.344,15.648 C85.344,14.496 85.296,13.504 85.2,12.672 C85.104,11.36 84.912,10.32 84.624,9.552 C84.336,9.168 84.112,8.976 83.952,8.976 C83.632,8.976 83.328,9.216 83.04,9.696 C82.752,10.176 82.528,11.056 82.368,12.336 L81.36,20.016 L81.36,20.976 L81.36,21.6 C81.456,22.944 81.504,23.824 81.504,24.24 L81.6,25.392 L81.744,26.928 C81.744,27.184 81.776,27.408 81.84,27.6 L82.368,29.376 C82.4,29.504 82.488,29.6 82.632,29.664 C82.776,29.728 82.912,29.76 83.04,29.76 Z" id="Shape" />
                    <path d="M111.888,32.16 C110.672,32.128 108.576,32.112 105.6,32.112 C105.152,32.112 104.848,31.824 104.688,31.248 C104.592,30.928 104.544,30.368 104.544,29.568 C104.544,28.128 104.512,26.864 104.448,25.776 C104.448,24.784 104.416,22.976 104.352,20.352 L104.304,14.592 L104.304,5.52 C104.304,5.296 104.424,5.056 104.664,4.8 C104.904,4.544 105.136,4.416 105.36,4.416 L108.144,4.464 C108.592,4.496 109.248,4.512 110.112,4.512 C111.04,4.544 112.192,4.56 113.568,4.56 C115.616,4.56 117.216,4.544 118.368,4.512 C119.488,4.448 121.36,4.416 123.984,4.416 C125.776,4.416 127.424,4.736 128.928,5.376 C130.816,6.176 132.32,7.424 133.44,9.12 C134.72,11.104 135.36,13.68 135.36,16.848 C135.36,19.696 135.048,22.08 134.424,24 C133.8,25.92 132.8,27.472 131.424,28.656 C130.016,29.872 128.168,30.76 125.88,31.32 C123.592,31.88 120.736,32.16 117.312,32.16 L111.888,32.16 Z M117.648,26.736 C118.352,26.736 118.816,26.704 119.04,26.64 C119.264,26.576 119.424,26.496 119.52,26.4 C120,25.92 120.448,24.496 120.864,22.128 C121.216,19.92 121.392,17.856 121.392,15.936 L121.392,15.168 C121.392,14.048 121.312,12.976 121.152,11.952 C121.024,10.704 120.768,9.68 120.384,8.88 C120.16,8.528 119.872,8.352 119.52,8.352 C119.232,8.352 118.88,8.432 118.464,8.592 L118.128,8.736 C118.128,9.472 118.096,11.12 118.032,13.68 L117.984,16.656 C117.984,17.296 117.968,17.792 117.936,18.144 L117.888,19.632 L117.648,26.736 Z" id="Shape" />
                    <path d="M142.176,32.784 C141.6,32.784 141.232,32.208 141.072,31.056 C140.976,30.576 140.928,30.144 140.928,29.76 C140.928,29.248 140.912,28.928 140.88,28.8 C140.848,27.872 140.768,26.4 140.64,24.384 L140.496,22.56 C140.304,19.744 140.208,17.664 140.208,16.32 L140.208,4.656 C140.208,4.4 140.496,4.208 141.072,4.08 C141.392,3.984 141.84,3.936 142.416,3.936 C142.8,3.936 143.216,3.96 143.664,4.008 C144.112,4.056 144.448,4.08 144.672,4.08 C145.152,4.144 145.904,4.176 146.928,4.176 L147.12,4.032 L149.232,4.032 C149.328,4.128 149.44,4.176 149.568,4.176 L149.76,4.176 C149.792,4.144 149.872,4.128 150,4.128 C150.064,4.096 150.16,4.08 150.288,4.08 C150.32,4.048 150.352,4.032 150.384,4.032 C150.416,4.032 150.432,4.032 150.432,4.032 C150.528,4.032 150.64,4.056 150.768,4.104 C150.896,4.152 150.992,4.176 151.056,4.176 L154.608,4.176 L154.752,12.432 C154.752,12.464 154.728,12.568 154.68,12.744 C154.632,12.92 154.592,13.152 154.56,13.44 C154.464,14.592 154.416,15.504 154.416,16.176 L154.416,25.536 L154.272,27.36 C154.176,28.16 154.144,28.816 154.176,29.328 C154.176,30 154.152,30.536 154.104,30.936 C154.056,31.336 153.952,31.648 153.792,31.872 C153.6,32.096 153.296,32.208 152.88,32.208 L152.832,32.16 L152.688,32.112 C152.624,32.112 152.592,32.128 152.592,32.16 L152.352,32.16 C152.16,32.224 152.048,32.272 152.016,32.304 C151.856,32.304 151.488,32.256 150.912,32.16 L150.24,32.112 C150.08,32.112 149.984,32.176 149.952,32.304 L146.352,32.304 L145.68,32.304 L144.432,32.544 L143.28,32.688 L142.176,32.784 Z" id="Path" />
                    <path d="M161.904,31.968 C161.84,31.968 161.792,31.904 161.76,31.776 C161.536,31.488 161.376,31.136 161.28,30.72 C161.184,30.56 161.104,30.352 161.04,30.096 C160.752,29.52 160.544,28.72 160.416,27.696 C160.288,26.224 160.224,25.056 160.224,24.192 C160.192,23.808 160.176,23.28 160.176,22.608 L160.176,21.456 C160.176,20.496 160.16,19.744 160.128,19.2 C160.096,18.624 160.08,17.488 160.08,15.792 C160.08,11.248 160.176,7.744 160.368,5.28 C160.368,4.896 160.912,4.608 162,4.416 L163.44,4.416 L164.64,4.416 C166.464,4.416 167.824,4.448 168.72,4.512 C170.064,4.608 171.424,4.656 172.8,4.656 C173.12,4.656 173.36,4.64 173.52,4.608 L174.24,4.608 L174.48,4.8 C175.536,4.576 176.624,4.432 177.744,4.368 C178.864,4.304 180.224,4.272 181.824,4.272 C181.888,4.272 181.968,4.32 182.064,4.416 L183.6,4.416 C183.856,4.416 184.056,4.56 184.2,4.848 C184.344,5.136 184.464,5.552 184.56,6.096 C184.688,6.512 184.784,7.024 184.848,7.632 C184.976,8.432 185.088,8.96 185.184,9.216 C185.184,10.112 185.024,10.56 184.704,10.56 C184.672,10.56 184.624,10.512 184.56,10.416 L184.368,10.368 C184.208,10.336 184.032,10.352 183.84,10.416 C183.648,10.512 183.44,10.56 183.216,10.56 C183.024,10.56 182.864,10.512 182.736,10.416 C182.672,10.384 182.528,10.368 182.304,10.368 C182.016,10.368 181.68,10.416 181.296,10.512 C181.168,10.544 180.92,10.592 180.552,10.656 C180.184,10.72 179.76,10.752 179.28,10.752 C177.904,10.752 176.912,10.784 176.304,10.848 C175.952,10.88 175.616,10.976 175.296,11.136 L175.296,11.04 C175.168,11.04 175.056,11.2 174.96,11.52 C174.736,12.064 174.592,12.816 174.528,13.776 C174.496,14.064 174.48,14.384 174.48,14.736 C174.48,15.088 174.536,15.328 174.648,15.456 C174.76,15.584 174.944,15.648 175.2,15.648 C175.392,15.648 175.552,15.584 175.68,15.456 C175.744,15.456 175.824,15.472 175.92,15.504 C176.016,15.536 176.096,15.584 176.16,15.648 L180.24,15.648 C180.272,15.584 180.32,15.536 180.384,15.504 C180.448,15.472 180.512,15.456 180.576,15.456 C180.896,15.456 181.136,15.504 181.296,15.6 C181.488,15.696 181.872,15.792 182.448,15.888 C182.768,15.888 182.992,15.984 183.12,16.176 C183.28,16.4 183.36,16.608 183.36,16.8 L184.368,19.968 C184.464,20.48 183.984,20.816 182.928,20.976 C182.32,21.104 181.152,21.168 179.424,21.168 L177.36,21.168 L175.92,21.168 C175.472,21.168 175.136,21.192 174.912,21.24 C174.688,21.288 174.544,21.408 174.48,21.6 C174.352,21.76 174.288,22.016 174.288,22.368 L174.288,22.56 C174.288,22.72 174.304,22.832 174.336,22.896 L174.288,23.952 C174.256,24.176 174.24,24.512 174.24,24.96 L174.24,25.44 L174.24,25.872 L174.24,26.16 C175.68,26.16 177.152,26.112 178.656,26.016 C180.128,25.92 181.584,25.872 183.024,25.872 C183.12,25.872 183.2,25.944 183.264,26.088 C183.328,26.232 183.36,26.4 183.36,26.592 C183.424,26.784 183.456,26.992 183.456,27.216 C183.52,27.696 183.616,28.144 183.744,28.56 L184.08,29.952 L184.08,30.912 L184.08,31.056 L184.08,31.44 L183.696,31.776 L183.36,31.776 L183.216,31.776 C182.864,31.776 182.64,31.76 182.544,31.728 C182.448,31.664 182.336,31.632 182.208,31.632 C182.144,31.664 182.048,31.712 181.92,31.776 C181.792,31.84 181.68,31.904 181.584,31.968 L181.584,31.728 L181.008,31.776 L180.288,31.776 C180.16,31.776 180.064,31.744 180,31.68 L179.616,31.632 C178.432,31.632 177.6,31.744 177.12,31.968 L161.904,31.968 Z" id="Path" />
                </g>
                <g id="Foodie" fill="#FFFFFF">
                    <path d="M2.16,32.688 C1.488,32.688 1.056,32.064 0.864,30.816 C0.768,30.272 0.72,29.776 0.72,29.328 L0.72,28.272 C0.624,27.216 0.576,26.192 0.576,25.2 C0.448,22.256 0.336,20.176 0.24,18.96 C0.24,18.416 0.208,17.832 0.144,17.208 C0.08,16.584 0.032,16.144 0,15.888 L0,0.72 C0,0.432 0.112,0.256 0.336,0.192 L0.624,0.192 L0.768,0.24 C1.888,0.24 3.36,0.192 5.184,0.096 C7.616,0.032 9.648,0 11.28,0 L11.76,0 C11.952,0.032 12.272,0.048 12.72,0.048 L13.584,0.048 L14.064,0.048 C15.024,0.048 15.776,0.064 16.32,0.096 L21.264,0.096 C21.872,0.16 22.864,0.192 24.24,0.192 C24.496,0.192 24.688,0.208 24.816,0.24 C25.072,0.304 25.36,0.336 25.68,0.336 C25.808,0.336 25.936,0.288 26.064,0.192 C26.8,0.192 27.2,0.864 27.264,2.208 C27.328,2.656 27.36,2.992 27.36,3.216 C27.36,3.408 27.328,3.792 27.264,4.368 C27.232,4.88 27.216,5.696 27.216,6.816 C27.216,7.168 26.912,7.376 26.304,7.44 C26.144,7.472 25.872,7.488 25.488,7.488 L24.816,7.488 L22.656,7.488 L21.216,7.536 C20.896,7.632 20.4,7.68 19.728,7.68 C19.056,7.68 18.672,7.664 18.576,7.632 C18.48,7.664 18.408,7.696 18.36,7.728 C18.312,7.76 18.272,7.776 18.24,7.776 C18.24,7.84 18.224,7.904 18.192,7.968 C18.16,8.032 18.144,8.128 18.144,8.256 C18.112,8.48 18.032,9.312 17.904,10.752 C17.872,11.168 17.856,11.904 17.856,12.96 L17.808,13.056 C17.808,13.184 17.872,13.328 18,13.488 L23.76,13.488 C24.144,13.488 24.424,13.536 24.6,13.632 C24.776,13.728 24.912,13.904 25.008,14.16 C25.136,14.544 25.2,15.536 25.2,17.136 L25.2,19.44 L25.2,20.736 C25.136,21.024 25.048,21.216 24.936,21.312 C24.824,21.408 24.672,21.456 24.48,21.456 C24.224,21.456 23.984,21.488 23.76,21.552 L21.6,21.696 L20.64,21.696 C20.16,21.696 19.84,21.728 19.68,21.792 C19.456,21.856 19.152,21.904 18.768,21.936 L18.096,21.936 C17.584,21.936 17.232,22 17.04,22.128 C16.88,22.16 16.72,22.32 16.56,22.608 C16.56,25.52 16.528,27.504 16.464,28.56 C16.432,30.096 16.272,31.216 15.984,31.92 C15.408,31.92 14.576,31.952 13.488,32.016 C12.976,32.016 12.64,32.048 12.48,32.112 L12,32.112 L11.904,32.112 C11.776,32.112 11.68,32.096 11.616,32.064 C11.552,32.032 11.488,32.016 11.424,32.016 L11.28,31.968 C11.28,31.936 11.216,31.92 11.088,31.92 C11.056,31.92 11,31.936 10.92,31.968 C10.84,32 10.768,32.048 10.704,32.112 L6.72,32.112 C6.688,32.144 6.616,32.168 6.504,32.184 C6.392,32.2 6.24,32.24 6.048,32.304 L3.12,32.64 L2.16,32.688 Z" id="Path" />
                    <path d="M45.984,33.36 C45.728,33.36 45.376,33.328 44.928,33.264 C44.704,33.2 44.352,33.168 43.872,33.168 C42.656,33.168 41.152,32.896 39.36,32.352 L39.024,32.352 C38.8,32.352 38.56,32.288 38.304,32.16 C38.24,32.096 38.16,32.04 38.064,31.992 C37.968,31.944 37.856,31.872 37.728,31.776 L36.72,31.2 C35.76,30.656 34.912,29.896 34.176,28.92 C33.44,27.944 32.848,26.864 32.4,25.68 C31.536,23.504 31.104,21.28 31.104,19.008 C31.104,16.48 31.616,14.048 32.64,11.712 C33.728,9.248 35.184,7.296 37.008,5.856 C39.024,4.256 41.264,3.456 43.728,3.456 C44.496,3.456 45.088,3.488 45.504,3.552 C45.504,3.488 45.552,3.456 45.648,3.456 L45.792,3.456 C48.032,3.456 50.032,3.536 51.792,3.696 C53.296,3.92 54.688,4.384 55.968,5.088 C58.528,6.784 60.368,8.64 61.488,10.656 C62.672,12.896 63.264,15.536 63.264,18.576 C63.264,21.616 62.544,24.464 61.104,27.12 L60.624,27.888 C60.496,28.08 60.416,28.176 60.384,28.176 L60.24,28.416 L59.904,28.608 C58.528,30.656 56.448,32.048 53.664,32.784 C51.808,33.168 49.248,33.36 45.984,33.36 Z M46.8,29.76 C47.088,29.76 47.312,29.584 47.472,29.232 C47.856,28.656 48.176,27.536 48.432,25.872 C48.464,25.584 48.544,24.944 48.672,23.952 C48.8,22.96 48.88,22.032 48.912,21.168 C49.04,18.992 49.104,17.648 49.104,17.136 L49.104,16.032 L49.104,15.648 C49.104,14.496 49.056,13.504 48.96,12.672 C48.864,11.36 48.672,10.32 48.384,9.552 C48.096,9.168 47.872,8.976 47.712,8.976 C47.392,8.976 47.088,9.216 46.8,9.696 C46.512,10.176 46.288,11.056 46.128,12.336 L45.12,20.016 L45.12,20.976 L45.12,21.6 C45.216,22.944 45.264,23.824 45.264,24.24 L45.36,25.392 L45.504,26.928 C45.504,27.184 45.536,27.408 45.6,27.6 L46.128,29.376 C46.16,29.504 46.248,29.6 46.392,29.664 C46.536,29.728 46.672,29.76 46.8,29.76 Z" id="Shape" />
                    <path d="M82.224,33.36 C81.968,33.36 81.616,33.328 81.168,33.264 C80.944,33.2 80.592,33.168 80.112,33.168 C78.896,33.168 77.392,32.896 75.6,32.352 L75.264,32.352 C75.04,32.352 74.8,32.288 74.544,32.16 C74.48,32.096 74.4,32.04 74.304,31.992 C74.208,31.944 74.096,31.872 73.968,31.776 L72.96,31.2 C72,30.656 71.152,29.896 70.416,28.92 C69.68,27.944 69.088,26.864 68.64,25.68 C67.776,23.504 67.344,21.28 67.344,19.008 C67.344,16.48 67.856,14.048 68.88,11.712 C69.968,9.248 71.424,7.296 73.248,5.856 C75.264,4.256 77.504,3.456 79.968,3.456 C80.736,3.456 81.328,3.488 81.744,3.552 C81.744,3.488 81.792,3.456 81.888,3.456 L82.032,3.456 C84.272,3.456 86.272,3.536 88.032,3.696 C89.536,3.92 90.928,4.384 92.208,5.088 C94.768,6.784 96.608,8.64 97.728,10.656 C98.912,12.896 99.504,15.536 99.504,18.576 C99.504,21.616 98.784,24.464 97.344,27.12 L96.864,27.888 C96.736,28.08 96.656,28.176 96.624,28.176 L96.48,28.416 L96.144,28.608 C94.768,30.656 92.688,32.048 89.904,32.784 C88.048,33.168 85.488,33.36 82.224,33.36 Z M83.04,29.76 C83.328,29.76 83.552,29.584 83.712,29.232 C84.096,28.656 84.416,27.536 84.672,25.872 C84.704,25.584 84.784,24.944 84.912,23.952 C85.04,22.96 85.12,22.032 85.152,21.168 C85.28,18.992 85.344,17.648 85.344,17.136 L85.344,16.032 L85.344,15.648 C85.344,14.496 85.296,13.504 85.2,12.672 C85.104,11.36 84.912,10.32 84.624,9.552 C84.336,9.168 84.112,8.976 83.952,8.976 C83.632,8.976 83.328,9.216 83.04,9.696 C82.752,10.176 82.528,11.056 82.368,12.336 L81.36,20.016 L81.36,20.976 L81.36,21.6 C81.456,22.944 81.504,23.824 81.504,24.24 L81.6,25.392 L81.744,26.928 C81.744,27.184 81.776,27.408 81.84,27.6 L82.368,29.376 C82.4,29.504 82.488,29.6 82.632,29.664 C82.776,29.728 82.912,29.76 83.04,29.76 Z" id="Shape" />
                    <path d="M111.888,32.16 C110.672,32.128 108.576,32.112 105.6,32.112 C105.152,32.112 104.848,31.824 104.688,31.248 C104.592,30.928 104.544,30.368 104.544,29.568 C104.544,28.128 104.512,26.864 104.448,25.776 C104.448,24.784 104.416,22.976 104.352,20.352 L104.304,14.592 L104.304,5.52 C104.304,5.296 104.424,5.056 104.664,4.8 C104.904,4.544 105.136,4.416 105.36,4.416 L108.144,4.464 C108.592,4.496 109.248,4.512 110.112,4.512 C111.04,4.544 112.192,4.56 113.568,4.56 C115.616,4.56 117.216,4.544 118.368,4.512 C119.488,4.448 121.36,4.416 123.984,4.416 C125.776,4.416 127.424,4.736 128.928,5.376 C130.816,6.176 132.32,7.424 133.44,9.12 C134.72,11.104 135.36,13.68 135.36,16.848 C135.36,19.696 135.048,22.08 134.424,24 C133.8,25.92 132.8,27.472 131.424,28.656 C130.016,29.872 128.168,30.76 125.88,31.32 C123.592,31.88 120.736,32.16 117.312,32.16 L111.888,32.16 Z M117.648,26.736 C118.352,26.736 118.816,26.704 119.04,26.64 C119.264,26.576 119.424,26.496 119.52,26.4 C120,25.92 120.448,24.496 120.864,22.128 C121.216,19.92 121.392,17.856 121.392,15.936 L121.392,15.168 C121.392,14.048 121.312,12.976 121.152,11.952 C121.024,10.704 120.768,9.68 120.384,8.88 C120.16,8.528 119.872,8.352 119.52,8.352 C119.232,8.352 118.88,8.432 118.464,8.592 L118.128,8.736 C118.128,9.472 118.096,11.12 118.032,13.68 L117.984,16.656 C117.984,17.296 117.968,17.792 117.936,18.144 L117.888,19.632 L117.648,26.736 Z" id="Shape" />
                    <path d="M142.176,32.784 C141.6,32.784 141.232,32.208 141.072,31.056 C140.976,30.576 140.928,30.144 140.928,29.76 C140.928,29.248 140.912,28.928 140.88,28.8 C140.848,27.872 140.768,26.4 140.64,24.384 L140.496,22.56 C140.304,19.744 140.208,17.664 140.208,16.32 L140.208,4.656 C140.208,4.4 140.496,4.208 141.072,4.08 C141.392,3.984 141.84,3.936 142.416,3.936 C142.8,3.936 143.216,3.96 143.664,4.008 C144.112,4.056 144.448,4.08 144.672,4.08 C145.152,4.144 145.904,4.176 146.928,4.176 L147.12,4.032 L149.232,4.032 C149.328,4.128 149.44,4.176 149.568,4.176 L149.76,4.176 C149.792,4.144 149.872,4.128 150,4.128 C150.064,4.096 150.16,4.08 150.288,4.08 C150.32,4.048 150.352,4.032 150.384,4.032 C150.416,4.032 150.432,4.032 150.432,4.032 C150.528,4.032 150.64,4.056 150.768,4.104 C150.896,4.152 150.992,4.176 151.056,4.176 L154.608,4.176 L154.752,12.432 C154.752,12.464 154.728,12.568 154.68,12.744 C154.632,12.92 154.592,13.152 154.56,13.44 C154.464,14.592 154.416,15.504 154.416,16.176 L154.416,25.536 L154.272,27.36 C154.176,28.16 154.144,28.816 154.176,29.328 C154.176,30 154.152,30.536 154.104,30.936 C154.056,31.336 153.952,31.648 153.792,31.872 C153.6,32.096 153.296,32.208 152.88,32.208 L152.832,32.16 L152.688,32.112 C152.624,32.112 152.592,32.128 152.592,32.16 L152.352,32.16 C152.16,32.224 152.048,32.272 152.016,32.304 C151.856,32.304 151.488,32.256 150.912,32.16 L150.24,32.112 C150.08,32.112 149.984,32.176 149.952,32.304 L146.352,32.304 L145.68,32.304 L144.432,32.544 L143.28,32.688 L142.176,32.784 Z" id="Path" />
                    <path d="M161.904,31.968 C161.84,31.968 161.792,31.904 161.76,31.776 C161.536,31.488 161.376,31.136 161.28,30.72 C161.184,30.56 161.104,30.352 161.04,30.096 C160.752,29.52 160.544,28.72 160.416,27.696 C160.288,26.224 160.224,25.056 160.224,24.192 C160.192,23.808 160.176,23.28 160.176,22.608 L160.176,21.456 C160.176,20.496 160.16,19.744 160.128,19.2 C160.096,18.624 160.08,17.488 160.08,15.792 C160.08,11.248 160.176,7.744 160.368,5.28 C160.368,4.896 160.912,4.608 162,4.416 L163.44,4.416 L164.64,4.416 C166.464,4.416 167.824,4.448 168.72,4.512 C170.064,4.608 171.424,4.656 172.8,4.656 C173.12,4.656 173.36,4.64 173.52,4.608 L174.24,4.608 L174.48,4.8 C175.536,4.576 176.624,4.432 177.744,4.368 C178.864,4.304 180.224,4.272 181.824,4.272 C181.888,4.272 181.968,4.32 182.064,4.416 L183.6,4.416 C183.856,4.416 184.056,4.56 184.2,4.848 C184.344,5.136 184.464,5.552 184.56,6.096 C184.688,6.512 184.784,7.024 184.848,7.632 C184.976,8.432 185.088,8.96 185.184,9.216 C185.184,10.112 185.024,10.56 184.704,10.56 C184.672,10.56 184.624,10.512 184.56,10.416 L184.368,10.368 C184.208,10.336 184.032,10.352 183.84,10.416 C183.648,10.512 183.44,10.56 183.216,10.56 C183.024,10.56 182.864,10.512 182.736,10.416 C182.672,10.384 182.528,10.368 182.304,10.368 C182.016,10.368 181.68,10.416 181.296,10.512 C181.168,10.544 180.92,10.592 180.552,10.656 C180.184,10.72 179.76,10.752 179.28,10.752 C177.904,10.752 176.912,10.784 176.304,10.848 C175.952,10.88 175.616,10.976 175.296,11.136 L175.296,11.04 C175.168,11.04 175.056,11.2 174.96,11.52 C174.736,12.064 174.592,12.816 174.528,13.776 C174.496,14.064 174.48,14.384 174.48,14.736 C174.48,15.088 174.536,15.328 174.648,15.456 C174.76,15.584 174.944,15.648 175.2,15.648 C175.392,15.648 175.552,15.584 175.68,15.456 C175.744,15.456 175.824,15.472 175.92,15.504 C176.016,15.536 176.096,15.584 176.16,15.648 L180.24,15.648 C180.272,15.584 180.32,15.536 180.384,15.504 C180.448,15.472 180.512,15.456 180.576,15.456 C180.896,15.456 181.136,15.504 181.296,15.6 C181.488,15.696 181.872,15.792 182.448,15.888 C182.768,15.888 182.992,15.984 183.12,16.176 C183.28,16.4 183.36,16.608 183.36,16.8 L184.368,19.968 C184.464,20.48 183.984,20.816 182.928,20.976 C182.32,21.104 181.152,21.168 179.424,21.168 L177.36,21.168 L175.92,21.168 C175.472,21.168 175.136,21.192 174.912,21.24 C174.688,21.288 174.544,21.408 174.48,21.6 C174.352,21.76 174.288,22.016 174.288,22.368 L174.288,22.56 C174.288,22.72 174.304,22.832 174.336,22.896 L174.288,23.952 C174.256,24.176 174.24,24.512 174.24,24.96 L174.24,25.44 L174.24,25.872 L174.24,26.16 C175.68,26.16 177.152,26.112 178.656,26.016 C180.128,25.92 181.584,25.872 183.024,25.872 C183.12,25.872 183.2,25.944 183.264,26.088 C183.328,26.232 183.36,26.4 183.36,26.592 C183.424,26.784 183.456,26.992 183.456,27.216 C183.52,27.696 183.616,28.144 183.744,28.56 L184.08,29.952 L184.08,30.912 L184.08,31.056 L184.08,31.44 L183.696,31.776 L183.36,31.776 L183.216,31.776 C182.864,31.776 182.64,31.76 182.544,31.728 C182.448,31.664 182.336,31.632 182.208,31.632 C182.144,31.664 182.048,31.712 181.92,31.776 C181.792,31.84 181.68,31.904 181.584,31.968 L181.584,31.728 L181.008,31.776 L180.288,31.776 C180.16,31.776 180.064,31.744 180,31.68 L179.616,31.632 C178.432,31.632 177.6,31.744 177.12,31.968 L161.904,31.968 Z" id="Path" />
                </g>
            </g>
        </g>
    </g>
</svg>
