<svg width="96px" height="91px" viewBox="0 0 96 91" version="1.1" xmlns="http://www.w3.org/2000/svg">
    <g id="Page-1" stroke="none" stroke-width="1" fill="none" fill-rule="evenodd">
        <g id="Intro" transform="translate(-88.000000, -96.000000)">
            <g id="Group-9" transform="translate(88.000000, 96.000000)">
                <path d="M41,26.8285798 C40.9800249,26.8317161 37.7662499,23.6128057 37.7351775,23.6036209 C37.7262996,23.6004847 37.7107634,23.5913 37.6996661,23.5883877 C37.6774716,23.579203 37.6597159,23.5697943 37.6353019,23.5576973 C37.6175462,23.5485126 37.5953516,23.5330554 37.5775959,23.5209584 C37.5531819,23.5055012 37.5332068,23.4934042 37.5043538,23.4750348 C37.4843787,23.4595776 37.4555258,23.4382959 37.4288923,23.4199264 C37.4022588,23.3984207 37.3800642,23.3800513 37.3512112,23.3585456 C37.3201388,23.3341276 37.2890664,23.3065735 37.2557746,23.2819315 C37.2291411,23.2575136 37.2025076,23.2360079 37.1714352,23.21159 C37.1337044,23.1777633 37.0959736,23.1441606 37.0560233,23.110558 C37.0249509,23.0830038 36.9983174,23.0583619 36.967245,23.0308077 C36.9228559,22.9911565 36.8762473,22.9481451 36.8318581,22.9053578 C36.8007857,22.8778036 36.7697133,22.8502494 36.7364214,22.819559 C36.6875933,22.7736353 36.6409847,22.7245755 36.5877177,22.6755156 C36.5522064,22.6450492 36.521134,22.6112225 36.4856227,22.5776199 C36.4301362,22.52856 36.3768692,22.4703154 36.3191633,22.415207 C36.2814325,22.3816044 36.2481407,22.3477777 36.2126293,22.3110388 C36.1504845,22.2530182 36.0883397,22.1885011 36.0239754,22.124208 C35.9884641,22.0906054 35.9551722,22.0538665 35.9174414,22.0171276 C35.8486383,21.9496982 35.7776156,21.8793567 35.7043735,21.8056548 C35.6710816,21.7720522 35.6355703,21.7384495 35.6022784,21.7017106 C35.5268169,21.6250966 35.4513553,21.5453463 35.3714548,21.46582 C35.3359435,21.4290811 35.2982127,21.3923422 35.2627014,21.3556033 C35.1828009,21.2729407 35.1006809,21.1900542 35.0207805,21.1044794 C34.9808302,21.0677405 34.9430994,21.0278654 34.9053687,20.9879902 C34.8188098,20.8992792 34.7322509,20.8103442 34.6434726,20.7184969 C34.6035224,20.6786218 34.5635721,20.6389706 34.5258414,20.5959592 C34.437063,20.5072482 34.3460653,20.4122647 34.257287,20.3172812 C34.2128978,20.2713576 34.1662892,20.225434 34.1174611,20.1763741 C34.0242439,20.0784783 33.9265877,19.9772223 33.831151,19.8761904 C33.7867619,19.833403 33.7490311,19.7903916 33.7068614,19.7476042 C33.5958885,19.6342512 33.4871351,19.517986 33.3739427,19.4014968 C33.2363363,19.2574534 33.0965105,19.1136341 32.9566846,18.9666785 C32.9344901,18.948309 32.9189539,18.9299396 32.8989787,18.9084339 C32.7702502,18.7767115 32.6437411,18.6418528 32.5127931,18.5072182 C32.4839401,18.4765277 32.4528677,18.4458373 32.4262342,18.4153709 C32.2886278,18.277376 32.1554603,18.1366929 32.0178539,17.9957857 C32.0000983,17.9774163 31.9823426,17.9559106 31.964587,17.9375411 C31.8181027,17.7905855 31.6760574,17.6404937 31.5273538,17.4872655 C31.5118176,17.4688961 31.4940619,17.4536629 31.4763062,17.4352934 C31.3276025,17.2789291 31.17446,17.1227887 31.0213174,16.9635121 C31.0080006,16.9543274 30.9969033,16.9422305 30.9835866,16.9299095 C30.8282245,16.7674967 30.670643,16.6053078 30.510842,16.442895 C30.4953058,16.4276618 30.4842086,16.4122046 30.4686723,16.4001076 C30.3044325,16.2316463 30.1379731,16.0600487 29.9670749,15.8915874 L29.9670749,15.8884512 C24.4872334,10.3173549 17.1430472,3.36496539 11.2392893,0.908611257 L11.2348503,0.908611257 C11.0484159,0.829084972 10.859762,0.755607164 10.675547,0.688177835 C10.671108,0.685041587 10.6688886,0.685041587 10.6644497,0.685041587 C10.4824541,0.614700028 10.2982391,0.553319177 10.118463,0.492162343 C10.1140241,0.492162343 10.1095852,0.492162343 10.1073657,0.489026095 C9.92758965,0.430781492 9.75003302,0.378809384 9.57025693,0.329749507 C9.56803747,0.329749507 9.56359855,0.326837277 9.5613791,0.326837277 C9.38160301,0.277777399 9.20848529,0.234766 9.03314812,0.198027096 C9.03092866,0.195114866 9.02648975,0.195114866 9.02427029,0.195114866 C8.85115257,0.158375962 8.67803486,0.124549289 8.5071366,0.0969951111 C8.5071366,0.0969951111 8.50491714,0.0969951111 8.50269769,0.0969951111 C8.33179943,0.0694409334 8.16312063,0.0479352337 7.99444183,0.0327020298 C7.18212025,-0.0439120254 6.42084619,0.0111963301 5.72171696,0.228717522 C-1.68461399,2.53811604 8.37174967,45 8.37174967,45 L32.2198246,31.7260549 L41,26.8285798" id="Fill-122" fill="#FAA243" />
                <path d="M55,26.8285798 C55.0199744,26.8317161 58.2314156,23.6128057 58.2624869,23.6036209 C58.2758032,23.6004847 58.2869001,23.5913 58.3002164,23.5883877 C58.3201908,23.579203 58.3423846,23.5697943 58.3667977,23.5576973 C58.3845528,23.5485126 58.4023078,23.5330554 58.4245016,23.5209584 C58.444476,23.5055012 58.4688892,23.4934042 58.4933023,23.4750348 C58.5177155,23.4595776 58.544348,23.4382959 58.5687612,23.4199264 C58.5976131,23.3984207 58.6198069,23.3800513 58.6486588,23.3585456 C58.6775108,23.3341276 58.7108014,23.3065735 58.7463115,23.2819315 C58.7729441,23.2575136 58.7995766,23.2360079 58.8306479,23.21159 C58.8639386,23.1777633 58.9061068,23.1441606 58.9460556,23.110558 C58.9726882,23.0830038 59.0037595,23.0583619 59.0326114,23.0308077 C59.076999,22.9911565 59.1213865,22.9481451 59.1702129,22.9053578 C59.2012842,22.8778036 59.2301361,22.8502494 59.2612074,22.819559 C59.3100337,22.7736353 59.3610795,22.7245755 59.4121252,22.6755156 C59.4454158,22.6450492 59.4787065,22.6112225 59.5119972,22.5776199 C59.5674817,22.52856 59.6251855,22.4703154 59.6828894,22.415207 C59.7161801,22.3816044 59.7516901,22.3477777 59.7894196,22.3110388 C59.8493428,22.2530182 59.9137048,22.1885011 59.9780668,22.124208 C60.0135768,22.0906054 60.0468675,22.0538665 60.0823776,22.0171276 C60.1511783,21.9496982 60.2221984,21.8793567 60.295438,21.8056548 C60.3287286,21.7720522 60.3620193,21.7384495 60.3997488,21.7017106 C60.4707689,21.6250966 60.5506665,21.5453463 60.6261254,21.46582 C60.6638548,21.4290811 60.6993649,21.3923422 60.7393137,21.3556033 C60.816992,21.2729407 60.899109,21.1900542 60.981226,21.1044794 C61.0189555,21.0677405 61.0566849,21.0278654 61.0944143,20.9879902 C61.1787507,20.8992792 61.2675259,20.8103442 61.3585204,20.7184969 C61.3962499,20.6786218 61.4339793,20.6389706 61.4739281,20.5959592 C61.5604839,20.5072482 61.6514784,20.4122647 61.742473,20.3172812 C61.7890799,20.2713576 61.8334675,20.225434 61.8800745,20.1763741 C61.9777271,20.0784783 62.070941,19.9772223 62.1708131,19.8761904 C62.2129813,19.833403 62.2529301,19.7903916 62.2928789,19.7476042 C62.4016285,19.6342512 62.5148168,19.517986 62.6257857,19.4014968 C62.7633872,19.2574534 62.9032081,19.1136341 63.0452484,18.9666785 C63.0630034,18.948309 63.0807584,18.9299396 63.0985134,18.9084339 C63.2272374,18.7767115 63.3581808,18.6418528 63.4869047,18.5072182 C63.517976,18.4765277 63.5446086,18.4458373 63.5756799,18.4153709 C63.7088426,18.277376 63.8420054,18.1366929 63.9818262,17.9957857 C63.9973619,17.9774163 64.0195557,17.9559106 64.0373107,17.9375411 C64.1793509,17.7905855 64.32583,17.6404937 64.4700896,17.4872655 C64.490064,17.4688961 64.5033803,17.4536629 64.5233547,17.4352934 C64.6742724,17.2789291 64.8251902,17.1227887 64.9783273,16.9635121 C64.9894242,16.9543274 65.0049599,16.9422305 65.0138374,16.9299095 C65.1714133,16.7674967 65.3289892,16.6053078 65.4910039,16.442895 C65.5021007,16.4276618 65.5176364,16.4122046 65.5331721,16.4001076 C65.6974061,16.2316463 65.8638595,16.0600487 66.0303129,15.8915874 L66.0303129,15.8884512 C71.5143981,10.3173549 78.8538839,3.36496539 84.7574317,0.908611257 C84.7618705,0.908611257 84.7618705,0.908611257 84.7618705,0.908611257 C84.952737,0.829084972 85.1369455,0.755607164 85.3255927,0.688177835 C85.3278121,0.685041587 85.3278121,0.685041587 85.3322508,0.685041587 C85.5164593,0.614700028 85.6984483,0.553319177 85.8804374,0.492162343 C85.8848762,0.492162343 85.8870955,0.492162343 85.8893149,0.489026095 C86.071304,0.430781492 86.2510737,0.378809384 86.4264046,0.329749507 C86.4308434,0.329749507 86.4352821,0.326837277 86.4397209,0.326837277 C86.6150518,0.277777399 86.7903827,0.234766 86.9634943,0.198027096 C86.967933,0.195114866 86.9701524,0.195114866 86.9723718,0.195114866 C87.1499221,0.158375962 87.3185949,0.124549289 87.4894871,0.0969951111 C87.4917065,0.0969951111 87.4961452,0.0969951111 87.4983646,0.0969951111 C87.6692568,0.0694409334 87.8379296,0.0479352337 88.0021636,0.0327020298 L88.004383,0.0327020298 C88.8144563,-0.0439120254 89.5779226,0.0111963301 90.2770269,0.228717522 C97.6853135,2.53811604 87.6293079,45 87.6293079,45 L63.7820821,31.7260549 L55,26.8285798" id="Fill-123" fill="#FAA243" />
                <path d="M81,60.001438 C81,74.9121482 65.9989117,87 47.5,87 C28.9966691,87 14,74.9121482 14,60.001438 C14,45.0885154 28.9966691,33 47.5,33 C65.9989117,33 81,45.0885154 81,60.001438" id="Fill-124" fill="#FFFFFF" />
                <path d="M74.5027954,28.2256845 C70.045003,25.6888878 64.8752946,23.6421949 59.0136303,22.7812079 C55.6004251,22.2819161 52.6884443,22.0307015 49.920621,22.0307015 C49.9161854,22.0307015 49.9117498,22.0307015 49.9028785,22.0307015 C49.8762648,22.0307015 49.8474334,22.0307015 49.8208197,22.0307015 C49.67888,22.0244268 49.5369404,22.0215135 49.3927829,22.0183761 C49.1022502,22.0123254 48.8139352,22.009188 48.5234025,22.0060507 C48.425819,22.0060507 48.3282355,22 48.2328698,22 C48.2040383,22 48.1774246,22.0031374 48.1508109,22.0031374 C48.0998013,22.0031374 48.0510096,22 48.0022178,22 C47.9512082,22 47.9024165,22.0031374 47.8536247,22.0031374 C47.827011,22.0031374 47.7981795,22 47.7715659,22 C47.6739823,22 47.5763988,22.0060507 47.4810331,22.0060507 C47.1882826,22.009188 46.8977498,22.0123254 46.6094349,22.0183761 C46.4674953,22.0215135 46.3255556,22.0244268 46.1836159,22.0307015 C46.1547845,22.0307015 46.125953,22.0307015 46.0971215,22.0307015 C46.090468,22.0307015 46.0860324,22.0307015 46.079379,22.0307015 C43.3137735,22.0307015 40.4040105,22.2819161 36.9885875,22.7812079 C31.1269233,23.6421949 25.954997,25.6888878 21.4972046,28.2256845 C9.76056924,34.3442499 0,44.9580101 0,59.1031167 C0,76.4192193 16.6490782,90.9677035 34.4824655,90.9677035 C37.638405,91.2523088 45.5781546,89.717233 45.5781546,83.9108371 C45.5781546,78.1044411 38.7717045,75.0253257 37.9222843,74.6174661 C33.1451278,72.3451059 29.1442037,70.4694002 26.9397034,67.6704081 C27.0284157,69.7858993 24.7507277,68.508537 24.2694636,68.0401708 C22.5772767,66.3930458 20.7631105,61.8326383 20.7963776,59.8448833 C20.4637065,62.4735604 17.9620201,61.5973347 18.2946911,58.22465 C18.7537772,53.59029 20.8983967,51.1408918 21.4972046,50.0831462 C19.9624821,52.1515767 18.4588089,50.4977287 19.8959479,47.5978922 C22.5684055,42.2121294 30.1577415,38.0300004 35.3873308,38.3885582 C37.2281107,38.3885582 38.8094072,38.9553037 40.2354572,39.7273235 C41.3221827,40.3339586 42.6018574,41.2991515 44.2896086,44.4156914 C44.9505152,45.643752 45.4184725,46.6589188 45.8908654,46.9345602 C46.458624,46.627545 46.2922885,45.632547 46.2922885,45.632547 C46.2922885,45.632547 48.7407476,47.8376777 50.2555099,48.4203342 C50.2555099,48.4203342 50.0780853,46.5625564 51.9011228,43.4285368 C52.3890403,42.5890633 53.0876496,41.8078554 53.9015848,41.127716 C56.2036686,39.1912796 58.2751005,38.5263789 60.614887,38.3885582 C65.8466941,38.0300004 73.4360301,42.2121294 76.1062699,47.5978922 C77.543409,50.4977287 76.0397357,52.1515767 74.5027954,50.0831462 C75.1038211,51.1408918 77.2506584,53.59029 77.7075267,58.22465 C78.0424156,61.5973347 75.5362935,62.4735604 75.2036224,59.8448833 C75.2368895,61.8326383 73.4271589,66.3930458 71.7305364,68.0401708 C71.2492723,68.508537 68.97602,69.7858993 69.0625144,67.6704081 C66.8580141,70.4694002 62.8593079,72.3451059 58.0777157,74.6174661 C57.2282955,75.0253257 50.4218454,78.1044411 50.4218454,83.9108371 C50.4218454,89.717233 58.3660306,91.2523088 61.5197523,90.9677035 C79.3509218,90.9677035 96,76.4192193 96,59.1031167 C96,44.9580101 86.2438664,34.3442499 74.5027954,28.2256845" id="Fill-125" fill="#F69B37" />
                <path d="M32.2207554,80.2515211 C32.0146935,80.8508918 32.1327498,81.4765123 32.4590144,81.9621338 C32.5620454,82.1130703 32.5234088,82.2596317 32.3409582,82.3077564 C31.7807274,82.4586928 31.3106488,82.8896272 31.1045869,83.4889979 C30.7675899,84.4624284 31.2720122,85.5342957 32.2293413,85.8777307 C34.1568784,86.5689757 36.8700265,84.1189933 36.9859363,83.7777458 C37.1039926,83.4364982 36.4943929,79.7987119 34.5647092,79.1074669 C33.6052336,78.7618443 32.5577524,79.2780906 32.2207554,80.2515211" id="Fill-126" fill="#442823" />
                <path d="M39.7659123,85.9259678 C39.2297308,85.7157332 38.8997729,85.1314767 39.0274352,84.6205578 C39.1570615,84.1096389 39.6971711,83.8651801 40.2333526,84.0754146 C40.7714981,84.2856492 41.101456,84.8699057 40.9718297,85.3783801 C40.8441674,85.889299 40.3040578,86.1337578 39.7659123,85.9259678" id="Fill-127" fill="#442823" />
                <path d="M37.3603911,87.5735642 C36.9354454,87.1216702 36.8784939,86.4963003 37.231155,86.1814736 C37.5860065,85.8645053 38.2146633,85.9737309 38.6396089,86.4234832 C39.0645546,86.8775189 39.1215061,87.5007471 38.768845,87.8177155 C38.4183743,88.1368254 37.7853367,88.0254582 37.3603911,87.5735642" id="Fill-128" fill="#442823" />
                <path d="M39.8343884,80.0409384 C39.287792,80.1922507 38.9240428,80.75037 39.0135212,81.2787229 C39.10689,81.8120369 39.6243086,82.112181 40.1689598,81.9608687 C40.713611,81.8045953 41.0773602,81.2489566 40.9859366,80.7181231 C40.894513,80.1897702 40.3790396,79.884665 39.8343884,80.0409384" id="Fill-129" fill="#442823" />
                <path d="M62.7814871,80.2515211 C62.9853898,80.8508918 62.8651946,81.4765123 62.5389503,81.9621338 C62.4402185,82.1130703 62.4788526,82.2596317 62.6612919,82.3077564 C63.2214876,82.4586928 63.6893906,82.8896272 63.8954396,83.4889979 C64.2324156,84.4624284 63.7280248,85.5342957 62.7686091,85.8777307 C60.8411922,86.5689757 58.1325062,84.1189933 58.0144573,83.7777458 C57.894262,83.4364982 58.5081164,79.7987119 60.4355332,79.1074669 C61.394949,78.7618443 62.4423648,79.2780906 62.7814871,80.2515211" id="Fill-130" fill="#442823" />
                <path d="M56.2343011,85.9259678 C56.7717808,85.7157332 57.1013305,85.1314767 56.9718645,84.6205578 C56.8443602,84.1096389 56.3049189,83.8651801 55.7674391,84.0754146 C55.231921,84.2856492 54.8984481,84.8699057 55.027914,85.3783801 C55.1593416,85.889299 55.6987829,86.1337578 56.2343011,85.9259678" id="Fill-131" fill="#442823" />
                <path d="M58.6374791,87.5735642 C59.0623416,87.1216702 59.1236619,86.4963003 58.7688798,86.1814736 C58.4162877,85.8645053 57.785564,85.9737309 57.3585115,86.4234832 C56.938029,86.8775189 56.8767086,87.5007471 57.2314907,87.8177155 C57.5840828,88.1368254 58.2148066,88.0254582 58.6374791,87.5735642" id="Fill-132" fill="#442823" />
                <path d="M57.1674528,80.0409384 C57.7118555,80.1922507 58.077383,80.75037 57.9860012,81.2787229 C57.8907307,81.8120369 57.3774367,82.112181 56.833034,81.9608687 C56.2886313,81.8045953 55.9211595,81.2489566 56.0144856,80.7181231 C56.1078118,80.1897702 56.6230501,79.884665 57.1674528,80.0409384" id="Fill-133" fill="#442823" />
            </g>
        </g>
    </g>
</svg>
